<?xml version="1.0" encoding="UTF-8"?>
<svg xmlns="http://www.w3.org/2000/svg" viewBox="0 0 4703.49 4703.49">
  <defs>
    <style>
      .uuid-3c3f3935-4540-4f8c-b623-84dab8b00e99 {
        fill: #f4da22;
      }

      .uuid-3c3f3935-4540-4f8c-b623-84dab8b00e99, .uuid-b2404f28-1add-446b-8d4f-2c89f94c92ab {
        stroke-width: 0px;
      }
    </style>
  </defs>
  <g id="uuid-aafb839c-665d-499b-a5d8-97e533fe7828" data-name="tag">
    <g>
      <rect class="uuid-3c3f3935-4540-4f8c-b623-84dab8b00e99" x="643.52" y="643.52" width="3416.45" height="3416.45" rx="155.77" ry="155.77" transform="translate(2351.74 -974.12) rotate(45)"/>
      <path class="uuid-b2404f28-1add-446b-8d4f-2c89f94c92ab" d="m2351.74,4703.49c-41.73,0-80.97-16.25-110.48-45.76L45.76,2462.23C16.25,2432.72,0,2393.48,0,2351.74s16.25-80.97,45.76-110.48L2241.26,45.76c29.51-29.51,68.75-45.76,110.48-45.76s80.97,16.25,110.48,45.76l2195.5,2195.5c29.51,29.51,45.76,68.75,45.76,110.48s-16.25,80.97-45.76,110.48l-2195.5,2195.5c-29.51,29.51-68.75,45.76-110.48,45.76Zm0-4702.47c-39.77,0-79.54,15.14-109.81,45.41L46.43,2241.93c-60.55,60.55-60.55,159.07,0,219.62l2195.5,2195.5c29.33,29.33,68.33,45.48,109.81,45.48s80.48-16.15,109.81-45.48l2195.5-2195.5c60.55-60.55,60.55-159.07,0-219.62L2461.56,46.43c-30.28-30.27-70.04-45.41-109.81-45.41Z"/>
    </g>
    <path class="uuid-b2404f28-1add-446b-8d4f-2c89f94c92ab" d="m2351.75,4527.12L176.37,2351.74,2351.75,176.37l2175.38,2175.38-2175.38,2175.38ZM289.51,2351.74l2062.24,2062.24,2062.24-2062.24L2351.75,289.51,289.51,2351.74Z"/>
  </g>
  <g id="uuid-1aa6fb19-98b8-4fd7-93bd-53eac5c71d2a" data-name="text">
    <g>
      <path class="uuid-b2404f28-1add-446b-8d4f-2c89f94c92ab" d="m1027.24,2774.62c-11.13,4.31-32.81,7.67-59.76,7.67-100.77,0-148.81-68.06-148.81-159.61,0-121.74,82.6-169.2,159.35-169.2,26.95,0,45.7,4.31,53.31,8.63l-12.89,52.72c-8.79-3.36-18.75-6.23-35.74-6.23-43.35,0-82.6,30.68-82.6,110.72s35.74,107.37,82.6,107.37c12.89,0,27.53-2.4,36.91-4.79l7.62,52.72Z"/>
      <path class="uuid-b2404f28-1add-446b-8d4f-2c89f94c92ab" d="m1295.56,2612.14c0,121.75-52.73,171.11-127.71,171.11-89.63,0-124.79-77.65-124.79-166.32s42.77-164.4,130.06-164.4c95.49,0,122.44,85.8,122.44,159.61Zm-172.82,5.75c0,73.33,16.99,110.72,48.04,110.72s44.52-47.93,44.52-113.6c0-56.56-10.55-107.84-45.11-107.84-30.46,0-47.45,41.22-47.45,110.72Z"/>
      <path class="uuid-b2404f28-1add-446b-8d4f-2c89f94c92ab" d="m1344.18,2779.42v-323.05h70.3l60.93,126.54c11.72,24.92,31.05,66.62,42.18,94.42h1.17c-2.34-34.03-7.62-90.11-7.62-149.54v-71.42h67.37v323.05h-70.3l-60.34-122.7c-12.89-27.32-31.05-68.06-39.84-97.3h-1.17c1.76,32.59,4.69,82.44,4.69,147.15v72.86h-67.37Z"/>
      <path class="uuid-b2404f28-1add-446b-8d4f-2c89f94c92ab" d="m1637.69,2715.19c15.82,7.19,42.77,12.46,65.03,12.46,36.32,0,53.9-15.34,53.9-36.43,0-23.49-17.58-34.99-50.97-52.72-53.9-26.84-74.4-60.87-74.4-90.11,0-51.76,42.18-94.9,124.79-94.9,25.78,0,50.38,5.75,62.1,11.5l-12.3,54.16c-11.13-5.75-28.12-11.02-50.38-11.02-32.81,0-48.63,16.3-48.63,33.55,0,19.17,11.72,29.24,54.48,50.33,52.14,25.88,71.47,58.48,71.47,92.51,0,58.95-53.31,97.78-130.64,97.78-31.64,0-62.69-6.71-75.57-12.94l11.13-54.16Z"/>
      <path class="uuid-b2404f28-1add-446b-8d4f-2c89f94c92ab" d="m1920.07,2514.36h-69.72v-58h216.76v58h-70.3v265.06h-76.75v-265.06Z"/>
      <path class="uuid-b2404f28-1add-446b-8d4f-2c89f94c92ab" d="m2107.54,2461.15c24.02-3.83,54.48-6.23,83.78-6.23,42.18,0,79.68,4.79,105.45,23.97,24.02,17.73,31.05,39.3,31.05,67.1,0,34.51-20.5,65.67-60.93,81v.96c26.95,8.63,40.42,29.24,48.04,63.75,7.62,35.95,18.16,75.73,25.19,87.71h-80.26c-4.69-9.11-13.47-41.7-19.33-77.17-7.03-40.26-19.33-51.77-45.11-51.77h-11.13v128.93h-76.75v-318.26Zm76.75,140.92h13.47c33.39,0,52.73-22.05,52.73-50.33s-13.47-46.97-48.04-47.93c-6.44,0-14.06.48-18.16,1.92v96.34Z"/>
      <path class="uuid-b2404f28-1add-446b-8d4f-2c89f94c92ab" d="m2457.28,2456.36v209.94c0,47.45,17.58,61.83,37.49,61.83,22.26,0,38.08-12.94,38.08-61.83v-209.94h76.75v198.91c0,82.92-38.08,127.97-114.24,127.97-82.6,0-114.83-46.49-114.83-127.5v-199.39h76.75Z"/>
      <path class="uuid-b2404f28-1add-446b-8d4f-2c89f94c92ab" d="m2865.04,2774.62c-11.13,4.31-32.81,7.67-59.76,7.67-100.77,0-148.8-68.06-148.8-159.61,0-121.74,82.6-169.2,159.35-169.2,26.95,0,45.7,4.31,53.31,8.63l-12.89,52.72c-8.79-3.36-18.75-6.23-35.74-6.23-43.35,0-82.6,30.68-82.6,110.72s35.74,107.37,82.6,107.37c12.89,0,27.54-2.4,36.91-4.79l7.62,52.72Z"/>
      <path class="uuid-b2404f28-1add-446b-8d4f-2c89f94c92ab" d="m2964.03,2514.36h-69.72v-58h216.76v58h-70.3v265.06h-76.75v-265.06Z"/>
      <path class="uuid-b2404f28-1add-446b-8d4f-2c89f94c92ab" d="m3228.25,2456.36v323.05h-76.75v-323.05h76.75Z"/>
      <path class="uuid-b2404f28-1add-446b-8d4f-2c89f94c92ab" d="m3529.95,2612.14c0,121.75-52.73,171.11-127.71,171.11-89.63,0-124.79-77.65-124.79-166.32s42.77-164.4,130.06-164.4c95.49,0,122.44,85.8,122.44,159.61Zm-172.82,5.75c0,73.33,16.99,110.72,48.04,110.72s44.52-47.93,44.52-113.6c0-56.56-10.55-107.84-45.11-107.84-30.46,0-47.45,41.22-47.45,110.72Z"/>
      <path class="uuid-b2404f28-1add-446b-8d4f-2c89f94c92ab" d="m3578.57,2779.42v-323.05h70.3l60.93,126.54c11.72,24.92,31.05,66.62,42.18,94.42h1.17c-2.34-34.03-7.62-90.11-7.62-149.54v-71.42h67.37v323.05h-70.3l-60.34-122.7c-12.89-27.32-31.05-68.06-39.84-97.3h-1.17c1.76,32.59,4.69,82.44,4.69,147.15v72.86h-67.37Z"/>
    </g>
    <g>
      <path class="uuid-b2404f28-1add-446b-8d4f-2c89f94c92ab" d="m1334.02,1632.09v397.26c0,89.79,29.64,117,63.24,117,37.55,0,64.23-24.49,64.23-117v-397.26h129.44v376.4c0,156.91-64.23,242.16-192.68,242.16-139.32,0-193.66-87.98-193.66-241.26v-377.3h129.44Z"/>
      <path class="uuid-b2404f28-1add-446b-8d4f-2c89f94c92ab" d="m1702.57,2243.4v-611.31h118.57l102.76,239.44c19.76,47.16,52.37,126.07,71.14,178.68h1.98c-3.95-64.4-12.84-170.51-12.84-282.98v-135.14h113.63v611.31h-118.57l-101.77-232.19c-21.74-51.7-52.37-128.79-67.19-184.12h-1.98c2.96,61.67,7.9,156,7.9,278.44v137.86h-113.63Z"/>
      <path class="uuid-b2404f28-1add-446b-8d4f-2c89f94c92ab" d="m2212.41,1641.16c32.61-7.26,80.04-11.79,131.42-11.79,83.99,0,142.28,18.14,184.77,54.42,57.31,47.16,86.95,127.88,86.95,246.7s-34.58,211.33-92.88,258.49c-44.46,39.91-110.67,58.95-203.54,58.95-40.51,0-81.02-3.63-106.71-6.35v-600.42Zm129.44,507.91c5.93,1.81,15.81,1.81,22.73,1.81,62.25,0,116.59-56.23,116.59-224.93,0-125.16-35.57-201.35-113.63-201.35-8.89,0-17.79,0-25.69,2.72v421.75Z"/>
      <path class="uuid-b2404f28-1add-446b-8d4f-2c89f94c92ab" d="m2979.16,1974.93h-152.16v165.07h171.93v103.4h-301.37v-611.31h289.51v103.4h-160.07v140.58h152.16v98.86Z"/>
      <path class="uuid-b2404f28-1add-446b-8d4f-2c89f94c92ab" d="m3086.86,1641.16c40.51-7.26,91.89-11.79,141.3-11.79,71.14,0,134.38,9.07,177.86,45.35,40.51,33.56,52.37,74.37,52.37,126.98,0,65.3-34.58,124.26-102.76,153.28v1.81c45.45,16.33,68.18,55.33,81.02,120.63,12.85,68.02,30.63,143.3,42.49,165.98h-135.37c-7.9-17.23-22.73-78.91-32.61-146.02-11.86-76.19-32.61-97.95-76.08-97.95h-18.77v243.98h-129.44v-602.24Zm129.44,266.65h22.73c56.32,0,88.93-41.72,88.93-95.23s-22.73-88.88-81.02-90.7c-10.87,0-23.71.91-30.63,3.63v182.3Z"/>
    </g>
  </g>
</svg>